<?xml version="1.0" encoding="UTF-8"?>
<svg version="1.1" xmlns="http://www.w3.org/2000/svg" width="500" height="500">
<path d="M0 0 C165 0 330 0 500 0 C500 165 500 330 500 500 C335 500 170 500 0 500 C0 335 0 170 0 0 Z " fill="#000000" transform="translate(0,0)"/>
<path d="M0 0 C17.16 0 34.32 0 52 0 C61.71416388 24.82508547 71.36057733 49.67355562 80.90722656 74.56347656 C81.30630219 75.6032666 81.70537781 76.64305664 82.11654663 77.71435547 C82.90391547 79.76589667 83.69073034 81.81765057 84.47695923 83.86962891 C86.48943917 89.11163359 88.52592432 94.34282053 90.59814453 99.56152344 C91.01733658 100.62007538 91.43652863 101.67862732 91.86842346 102.76925659 C92.6700513 104.78953109 93.47595314 106.80811649 94.28672791 108.82473755 C94.64336014 109.72417084 94.99999237 110.62360413 95.36743164 111.55029297 C95.68361954 112.33983368 95.99980743 113.12937439 96.32557678 113.94284058 C97 116 97 116 97 119 C97.66 119 98.32 119 99 119 C99.09176514 118.2054541 99.18353027 117.4109082 99.27807617 116.59228516 C100.20102348 111.99970936 101.82904653 107.86946523 103.55078125 103.5234375 C103.91704117 102.58482376 104.28330109 101.64621002 104.66065979 100.67915344 C105.87277123 97.57571968 107.09271085 94.47542316 108.3125 91.375 C109.59829294 88.08837704 110.88196652 84.80093156 112.16546631 81.51341248 C113.06054394 79.22097951 113.95626649 76.92879826 114.8526001 74.63685608 C118.10834129 66.30641657 121.3312859 57.96379857 124.53515625 49.61328125 C124.98452042 48.44220825 125.43388458 47.27113525 125.89686584 46.0645752 C127.65197415 41.48869957 129.40611487 36.91245614 131.15811157 32.33538818 C132.37216387 29.1644315 133.58829014 25.99427644 134.8046875 22.82421875 C135.15608292 21.90417557 135.50747833 20.98413239 135.86952209 20.03620911 C138.45764446 13.29666151 141.22011221 6.67173069 144 0 C189.54 0 235.08 0 282 0 C282 13.86 282 27.72 282 42 C257.91 42 233.82 42 209 42 C209 55.53 209 69.06 209 83 C231.44 83 253.88 83 277 83 C277 96.86 277 110.72 277 125 C254.56 125 232.12 125 209 125 C209.59401922 144.60263436 210.23522043 163.84772122 212.0625 183.3125 C212.34335603 186.40191635 212.62147267 189.49156484 212.89830017 192.5813446 C213.0678551 194.46362068 213.24017181 196.34565086 213.41578674 198.22737122 C213.49264206 199.06153061 213.56949738 199.89569 213.64868164 200.75512695 C213.71672501 201.4816597 213.78476837 202.20819244 213.85487366 202.95674133 C213.99763325 204.96667815 214 206.98499967 214 209 C196.51 209 179.02 209 161 209 C160.94392578 201.64847656 160.94392578 201.64847656 160.88671875 194.1484375 C160.82768064 187.55720767 160.7600415 180.96609442 160.6875 174.375 C160.6781908 173.52684471 160.66888161 172.67868942 160.65929031 171.80483246 C160.38987607 147.87787388 159.67228594 124.18089267 157.26513672 100.36035156 C156.8608711 95.23667575 156.87602088 90.13525095 157 85 C154.28492129 86.35753936 154.26471004 87.55497605 153.29858398 90.40063477 C152.97259216 91.34852371 152.64660034 92.29641266 152.31072998 93.27302551 C151.95940002 94.31859116 151.60807007 95.3641568 151.24609375 96.44140625 C150.87309143 97.53116257 150.50008911 98.62091888 150.11578369 99.74369812 C148.88327888 103.34781165 147.66058192 106.95517908 146.4375 110.5625 C144.93596563 114.96079055 143.43059289 119.35776134 141.92391396 123.75429153 C141.48325851 125.04052747 141.04289088 126.32686205 140.60280418 127.61329269 C135.73323808 141.8474262 130.71021016 156.0261665 125.63449097 170.1880188 C121.1442714 182.71703975 116.93547156 195.28446087 113 208 C103.43 208 93.86 208 84 208 C81.30441097 201.26102743 78.73669408 194.56483112 76.3828125 187.7109375 C76.04901077 186.74567139 75.71520905 185.78040527 75.37129211 184.78588867 C74.65729028 182.72047059 73.94434974 180.65468537 73.23239136 178.58856201 C71.34070965 173.09905153 69.4412163 167.61224271 67.54296875 162.125 C67.1600618 161.01740326 66.77715485 159.90980652 66.38264465 158.76864624 C62.19057577 146.64742856 57.95496559 134.54155363 53.70458984 122.44067383 C51.2510787 115.45250381 48.80747381 108.46224219 46.42578125 101.44921875 C46.05074463 100.34980957 45.67570801 99.25040039 45.28930664 98.11767578 C44.62197278 96.15596192 43.96048858 94.1922429 43.30639648 92.22607422 C42.15972311 87.83765567 42.15972311 87.83765567 39 85 C39.00958488 85.65923116 39.01916977 86.31846231 39.0290451 86.99767017 C39.08535107 93.91661701 38.74418393 100.72872155 38.17382812 107.62182617 C38.08604599 108.72558594 37.99826385 109.8293457 37.90782166 110.96655273 C37.61976211 114.57570292 37.3255579 118.18432319 37.03125 121.79296875 C36.82908652 124.31070448 36.62731017 126.82847133 36.42590332 129.3462677 C35.95101058 135.27125581 35.47224584 141.19592277 34.99155664 147.12044269 C34.44395344 153.87240638 33.90137012 160.62477062 33.3591814 167.37717092 C32.24498872 181.25189741 31.12391783 195.12605808 30 209 C14.16 209 -1.68 209 -18 209 C-16.73066291 188.98538149 -15.20668314 169.02526463 -13.38062668 149.05480957 C-13.11543389 146.14741619 -12.8531536 143.23976248 -12.59078312 140.33211327 C-10.83072253 120.83306022 -9.00120641 101.34098547 -7.13623047 81.85168457 C-4.53185341 54.58724454 -2.26886957 27.29401823 0 0 Z " fill="#F6A46F" transform="translate(129,148)"/>
<path d="M0 0 C6.59474944 3.70102791 9.90229094 7.97447734 12.6875 14.9375 C5.7575 18.8975 -1.1725 22.8575 -8.3125 26.9375 C-8.3125 27.5975 -8.3125 28.2575 -8.3125 28.9375 C-3.0325 31.9075 2.2475 34.8775 7.6875 37.9375 C2.16357803 43.46142197 -1.24013312 46.24834083 -9.1237793 46.50732422 C-9.80480713 46.50490723 -10.48583496 46.50249023 -11.1875 46.5 C-12.24868042 46.49637451 -12.24868042 46.49637451 -13.33129883 46.49267578 C-18.65752313 46.30479974 -21.9030932 45.27516774 -25.76953125 41.65625 C-26.27871094 41.0890625 -26.78789062 40.521875 -27.3125 39.9375 C-27.81136719 39.4115625 -28.31023437 38.885625 -28.82421875 38.34375 C-34.32699801 32.16297788 -35.01214983 26.89941737 -34.74609375 18.77734375 C-33.97826396 11.97755377 -31.25606288 7.38045694 -26.015625 3.03125 C-17.84942909 -2.62637593 -9.30063904 -4.29802258 0 0 Z " fill="#F3A16D" transform="translate(318.3125,83.0625)"/>
<path d="M0 0 C17.16 0 34.32 0 52 0 C47.79451627 8.41096747 43.63962771 16.6411652 38.9375 24.75 C38.44701172 25.60464844 37.95652344 26.45929688 37.45117188 27.33984375 C34.03795876 33.26923631 30.53751553 39.1440464 27 45 C23.03061623 43.67687208 22.7043019 42.16362363 20.7421875 38.5234375 C20.12029541 37.38382568 19.49840332 36.24421387 18.85766602 35.07006836 C18.19671022 33.83841493 17.53582272 32.60672484 16.875 31.375 C15.5318209 28.90249641 14.18216595 26.43355452 12.83203125 23.96484375 C12.50152267 23.35860672 12.1710141 22.75236969 11.83049011 22.12776184 C8.86026189 16.69771442 5.71920236 11.3876614 2.43896484 6.14013672 C0 2.19696448 0 2.19696448 0 0 Z " fill="#F5A36E" transform="translate(201,150)"/>
<path d="M0 0 C3 0.125 3 0.125 4 1.125 C4.125 4.125 4.125 4.125 4 7.125 C3 8.125 3 8.125 0 8.25 C-3 8.125 -3 8.125 -4 7.125 C-4.125 4.125 -4.125 4.125 -4 1.125 C-3 0.125 -3 0.125 0 0 Z " fill="#030201" transform="translate(303,92.875)"/>
</svg>
